<svg xmlns="http://www.w3.org/2000/svg" xmlns:xlink="http://www.w3.org/1999/xlink" width="500" zoomAndPan="magnify" viewBox="0 0 375 374.999991" height="500" preserveAspectRatio="xMidYMid meet" version="1.0"><defs><g/><clipPath id="33a454ffba"><path d="M 154 96.640625 L 236.226562 96.640625 L 236.226562 152 L 154 152 Z M 154 96.640625 " clip-rule="nonzero"/></clipPath><clipPath id="c8814e54ed"><path d="M 138.726562 116 L 222 116 L 222 191.140625 L 138.726562 191.140625 Z M 138.726562 116 " clip-rule="nonzero"/></clipPath></defs><g clip-path="url(#33a454ffba)"><path fill="#00e4e3" d="M 236.109375 117.007812 L 236.109375 133.078125 C 236.109375 141.191406 231.367188 148.199219 224.503906 151.472656 L 224.503906 136.714844 C 224.503906 123.632812 213.859375 112.988281 200.777344 112.988281 L 159.214844 112.988281 C 157.460938 112.988281 155.753906 113.179688 154.105469 113.542969 C 155.75 103.945312 164.109375 96.640625 174.175781 96.640625 L 215.738281 96.640625 C 226.988281 96.640625 236.109375 105.757812 236.109375 117.007812 Z M 236.109375 117.007812 " fill-opacity="1" fill-rule="nonzero"/></g><g clip-path="url(#c8814e54ed)"><path fill="#a060ff" d="M 200.777344 116.34375 L 159.210938 116.34375 C 147.964844 116.34375 138.847656 125.464844 138.847656 136.714844 L 138.847656 152.785156 C 138.847656 164.035156 147.964844 173.152344 159.210938 173.152344 L 161.011719 173.152344 L 161.011719 191.136719 L 163.589844 188.558594 C 173.453125 178.695312 186.828125 173.152344 200.773438 173.152344 C 212.023438 173.152344 221.140625 164.03125 221.140625 152.785156 L 221.140625 136.714844 C 221.144531 125.464844 212.027344 116.34375 200.777344 116.34375 Z M 200.777344 116.34375 " fill-opacity="1" fill-rule="nonzero"/></g><g fill="#cb6ce6" fill-opacity="1"><g transform="translate(78.413284, 239.469695)"><g><path d="M 19.609375 -29.421875 C 21.492188 -29.109375 23.015625 -28.585938 24.171875 -27.859375 C 27.441406 -26.234375 29.363281 -24.617188 29.9375 -23.015625 C 29.9375 -22.898438 29.707031 -22.363281 29.25 -21.40625 C 28.789062 -20.457031 28.1875 -19.050781 27.4375 -17.1875 C 27.03125 -16.21875 26.734375 -15.734375 26.546875 -15.734375 C 25.890625 -16.015625 25.222656 -16.40625 24.546875 -16.90625 C 24.222656 -15.988281 23.734375 -15.015625 23.078125 -13.984375 C 22.847656 -13.191406 22.546875 -12.796875 22.171875 -12.796875 C 19.898438 -13.535156 18.441406 -13.90625 17.796875 -13.90625 C 17.148438 -13.90625 16.597656 -13.566406 16.140625 -12.890625 C 15.546875 -8.222656 17.039062 -6.25 20.625 -6.96875 C 21.96875 -7.226562 23.820312 -8.015625 26.1875 -9.328125 C 26.625 -8.640625 27.050781 -7.671875 27.46875 -6.421875 C 27.914062 -5.816406 28.523438 -3.898438 29.296875 -0.671875 C 28.179688 0.992188 26.71875 2.179688 24.90625 2.890625 C 24.113281 3.171875 23.566406 3.503906 23.265625 3.890625 C 22.992188 5.203125 21.660156 6.753906 19.265625 8.546875 C 17.953125 9.460938 16.359375 9.960938 14.484375 10.046875 C 12.617188 10.140625 10.070312 9.394531 6.84375 7.8125 C 3.15625 5.40625 0.992188 2.15625 0.359375 -1.9375 C 0.148438 -2.8125 0.03125 -4.671875 0 -7.515625 C 0.238281 -10.691406 0.632812 -13.035156 1.1875 -14.546875 C 1.5 -15.648438 2.046875 -17.046875 2.828125 -18.734375 L 4.84375 -21.65625 C 6.164062 -22.5625 7.382812 -23.015625 8.5 -23.015625 C 9.21875 -24.140625 10.398438 -25.539062 12.046875 -27.21875 C 13.867188 -29.070312 16.390625 -29.804688 19.609375 -29.421875 Z M 6.5625 -10.609375 C 6.476562 -7.265625 7.210938 -4.164062 8.765625 -1.3125 C 11.109375 1.945312 13.585938 3.394531 16.203125 3.03125 C 20.203125 2.59375 22.738281 2.0625 23.8125 1.4375 C 25.894531 0.582031 27.082031 -0.269531 27.375 -1.125 L 27.375 -1.21875 C 26.945312 -3.832031 26.429688 -5.6875 25.828125 -6.78125 C 25.710938 -6.84375 25.617188 -6.875 25.546875 -6.875 C 23.890625 -5.832031 22.019531 -5.101562 19.9375 -4.6875 C 15.28125 -4.257812 13.378906 -7.144531 14.234375 -13.34375 C 15.171875 -16.695312 16.191406 -18.738281 17.296875 -19.46875 C 18.398438 -20.195312 19.78125 -20.347656 21.4375 -19.921875 C 22.5625 -19.921875 23.960938 -19.34375 25.640625 -18.1875 L 25.734375 -18.1875 C 26.460938 -19.84375 27.160156 -21.453125 27.828125 -23.015625 L 27.828125 -23.203125 C 26.578125 -24.460938 25.332031 -25.410156 24.09375 -26.046875 C 22.28125 -27.191406 20.300781 -27.765625 18.15625 -27.765625 C 16.332031 -27.804688 14.851562 -27.367188 13.71875 -26.453125 C 12.582031 -25.546875 11.535156 -24.460938 10.578125 -23.203125 C 8.679688 -20.210938 7.535156 -17.695312 7.140625 -15.65625 C 6.753906 -13.613281 6.5625 -11.929688 6.5625 -10.609375 Z M 6.5625 -10.609375 "/></g></g></g><g fill="#cb6ce6" fill-opacity="1"><g transform="translate(106.350393, 239.469695)"><g><path d="M 16.390625 -29.3125 L 16.9375 -29.3125 C 17.601562 -28.875 17.9375 -28.078125 17.9375 -26.921875 C 17.875 -25.816406 17.785156 -24.601562 17.671875 -23.28125 C 17.585938 -20.570312 17.492188 -18.289062 17.390625 -16.4375 C 17.429688 -16.082031 17.523438 -15.90625 17.671875 -15.90625 L 17.765625 -15.90625 C 17.953125 -15.90625 18.164062 -17.054688 18.40625 -19.359375 C 18.519531 -19.359375 18.609375 -19.785156 18.671875 -20.640625 C 19.097656 -21.898438 19.796875 -22.8125 20.765625 -23.375 C 21.253906 -23.738281 21.773438 -23.921875 22.328125 -23.921875 C 22.390625 -24.867188 22.421875 -25.929688 22.421875 -27.109375 C 23.890625 -27.210938 25.769531 -27.457031 28.0625 -27.84375 C 29.8125 -28.34375 31.847656 -28.6875 34.171875 -28.875 C 34.546875 -28.84375 34.734375 -28.753906 34.734375 -28.609375 C 34.734375 -26.953125 34.519531 -25.035156 34.09375 -22.859375 C 33.613281 -18.410156 33.160156 -13.269531 32.734375 -7.4375 C 32.785156 -3.257812 32.84375 0.113281 32.90625 2.6875 C 32.5625 3.113281 31.289062 3.304688 29.09375 3.265625 C 28.832031 5.703125 28.09375 6.984375 26.875 7.109375 C 26.40625 7.535156 24.367188 7.867188 20.765625 8.109375 C 17.960938 7.648438 16.722656 5.882812 17.046875 2.8125 L 17.515625 -0.375 L 17.515625 -1.015625 L 17.328125 -1.015625 L 16.40625 -1.109375 C 16.289062 -0.785156 16.238281 -0.359375 16.25 0.171875 C 16 0.460938 14.707031 0.8125 12.375 1.21875 C 12.507812 2.382812 12.21875 3.59375 11.5 4.84375 C 10.40625 6.175781 8.820312 6.898438 6.75 7.015625 L 3.28125 6.203125 C 2.0625 5.710938 1.269531 4.984375 0.90625 4.015625 C 0.238281 0.671875 -0.09375 -1.488281 -0.09375 -2.46875 L -0.09375 -6.65625 C -0.0390625 -12.195312 0.140625 -15.941406 0.453125 -17.890625 C 0.453125 -19.804688 0.90625 -20.929688 1.8125 -21.265625 C 2.863281 -21.941406 3.929688 -22.519531 5.015625 -23 C 5.203125 -24.601562 5.296875 -25.785156 5.296875 -26.546875 C 5.546875 -26.734375 6.753906 -26.976562 8.921875 -27.28125 C 11.691406 -28.019531 13.421875 -28.539062 14.109375 -28.84375 C 14.242188 -28.84375 15.003906 -29 16.390625 -29.3125 Z M 6.9375 -22.390625 C 6.863281 -20.703125 6.800781 -19.597656 6.75 -19.078125 C 6.5625 -14.492188 6.40625 -9.84375 6.28125 -5.125 C 6.28125 -4.226562 6.28125 -2.15625 6.28125 1.09375 L 6.46875 1.09375 C 7.59375 0.851562 9.484375 0.394531 12.140625 -0.28125 C 12.515625 -0.457031 13.363281 -0.675781 14.6875 -0.9375 L 14.6875 -1.65625 C 14.6875 -2.8125 14.789062 -4.835938 15 -7.734375 C 19.519531 -9.253906 22.441406 -10.078125 23.765625 -10.203125 C 23.890625 -8.753906 23.800781 -5.144531 23.5 0.625 L 23.5 1.640625 L 24.421875 1.734375 L 27.171875 1.671875 C 28.523438 1.503906 29.796875 1.359375 30.984375 1.234375 C 30.984375 0.046875 30.984375 -2.257812 30.984375 -5.6875 C 31.109375 -11.101562 31.351562 -15.550781 31.71875 -19.03125 C 31.84375 -19.625 32.125 -22.265625 32.5625 -26.953125 C 31.101562 -26.773438 29.503906 -26.445312 27.765625 -25.96875 C 26.328125 -25.78125 25.109375 -25.597656 24.109375 -25.421875 L 24.046875 -21 C 24.046875 -20.507812 23.984375 -18.71875 23.859375 -15.625 C 22.148438 -15.101562 19.328125 -14.398438 15.390625 -13.515625 C 15.578125 -17.898438 15.671875 -20.457031 15.671875 -21.1875 C 15.785156 -23.6875 15.929688 -25.328125 16.109375 -26.109375 L 16.109375 -27.015625 C 16.109375 -27.109375 16.019531 -27.203125 15.84375 -27.296875 L 15.484375 -27.296875 C 14.535156 -26.921875 12.65625 -26.398438 9.84375 -25.734375 C 9.46875 -25.578125 8.585938 -25.363281 7.203125 -25.09375 C 7.097656 -24.976562 7.007812 -24.078125 6.9375 -22.390625 Z M 6.9375 -22.390625 "/></g></g></g><g fill="#cb6ce6" fill-opacity="1"><g transform="translate(141.380667, 239.469695)"><g><path d="M 23.328125 -30.25 C 23.703125 -30.25 24.550781 -28.398438 25.875 -24.703125 C 27.207031 -21.015625 28.960938 -15.625 31.140625 -8.53125 C 32.316406 -5.238281 33.363281 -2.570312 34.28125 -0.53125 C 33.476562 0.0820312 31.753906 0.84375 29.109375 1.75 C 29.171875 2.820312 28.863281 4.007812 28.1875 5.3125 C 27.28125 6.851562 25.578125 7.800781 23.078125 8.15625 C 20.023438 8.15625 17.460938 7.671875 15.390625 6.703125 C 13.609375 8.035156 12.066406 8.828125 10.765625 9.078125 C 7.859375 9.710938 5 9.046875 2.1875 7.078125 C 1.34375 6.503906 0.707031 5.71875 0.28125 4.71875 C -0.0703125 3.738281 -0.164062 2.644531 0 1.4375 C 0.125 -0.738281 0.820312 -4.03125 2.09375 -8.4375 C 3.800781 -13.769531 5.320312 -18.269531 6.65625 -21.9375 C 7.3125 -23.519531 8.484375 -24.375 10.171875 -24.5 L 11.21875 -27.765625 C 11.59375 -28.148438 13.117188 -28.5625 15.796875 -29 C 18.472656 -29.4375 20.984375 -29.851562 23.328125 -30.25 Z M 16.765625 -27.4375 C 14.179688 -27.050781 12.78125 -26.703125 12.5625 -26.390625 C 11.851562 -23.671875 11.226562 -21.253906 10.6875 -19.140625 C 10.144531 -17.035156 9.5625 -15.140625 8.9375 -13.453125 C 6.6875 -6.085938 5.5625 -2.164062 5.5625 -1.6875 C 5.5625 -1.457031 6.328125 -1.078125 7.859375 -0.546875 C 9.398438 -0.0234375 11.128906 0.742188 13.046875 1.765625 C 13.453125 -0.378906 13.828125 -1.800781 14.171875 -2.5 C 18.316406 -2.695312 21.164062 -2.976562 22.71875 -3.34375 C 23.164062 -2.144531 23.632812 -0.601562 24.125 1.28125 C 27.414062 0.4375 30.023438 -0.472656 31.953125 -1.453125 C 30.847656 -3.859375 29.835938 -6.53125 28.921875 -9.46875 C 27.285156 -14.382812 25.609375 -19.46875 23.890625 -24.71875 C 23.203125 -26.75 22.765625 -27.96875 22.578125 -28.375 C 21.285156 -28.144531 19.347656 -27.832031 16.765625 -27.4375 Z M 18.125 -19.234375 C 18.332031 -18.429688 18.828125 -16.816406 19.609375 -14.390625 C 19.847656 -13.804688 20.335938 -12.128906 21.078125 -9.359375 C 17.847656 -8.710938 15.941406 -8.375 15.359375 -8.34375 C 16.734375 -14.144531 17.65625 -17.773438 18.125 -19.234375 Z M 18.125 -19.234375 "/></g></g></g><g fill="#cb6ce6" fill-opacity="1"><g transform="translate(172.553255, 239.469695)"><g><path d="M 29.9375 -30.390625 C 30.59375 -30.390625 30.921875 -30.296875 30.921875 -30.109375 C 30.785156 -28.097656 30.546875 -26.179688 30.203125 -24.359375 C 29.859375 -22.535156 29.664062 -20.550781 29.625 -18.40625 C 29.144531 -17.945312 28.304688 -17.671875 27.109375 -17.578125 L 24.640625 -17.4375 C 23.304688 -17.300781 22.65625 -17.128906 22.6875 -16.921875 C 23.4375 -11.585938 23.625 -6.773438 23.25 -2.484375 C 23.21875 -1.484375 23.082031 -0.984375 22.84375 -0.984375 C 21.425781 -0.347656 20.71875 0.0976562 20.71875 0.359375 C 20.84375 1.609375 20.414062 2.859375 19.4375 4.109375 C 18.300781 5.671875 16.929688 6.796875 15.328125 7.484375 C 13.660156 8.253906 11.957031 8.648438 10.21875 8.671875 C 8.957031 8.671875 8.109375 7.875 7.671875 6.28125 C 7.078125 4.414062 6.832031 2.140625 6.9375 -0.546875 C 7 -3.421875 7.117188 -5.976562 7.296875 -8.21875 C 7.023438 -8.15625 6.144531 -7.851562 4.65625 -7.3125 C 4.070312 -7.0625 3.039062 -6.9375 1.5625 -6.9375 C 0.9375 -7.394531 0.476562 -8.765625 0.1875 -11.046875 C 0.0625 -16.273438 0.242188 -19.191406 0.734375 -19.796875 L 2.921875 -21.453125 L 2.921875 -24.078125 C 2.972656 -24.410156 3.21875 -24.628906 3.65625 -24.734375 C 5.59375 -25.585938 8.628906 -26.5625 12.765625 -27.65625 C 17.523438 -28.757812 23.25 -29.671875 29.9375 -30.390625 Z M 29.203125 -28.5625 C 23.472656 -28.039062 19.488281 -27.472656 17.25 -26.859375 C 13.476562 -26.078125 9.3125 -24.941406 4.75 -23.453125 C 4.71875 -21.410156 4.675781 -19.460938 4.625 -17.609375 C 4.582031 -15.753906 4.773438 -14.507812 5.203125 -13.875 C 5.691406 -13.875 6.816406 -14.238281 8.578125 -14.96875 C 8.972656 -15.21875 10.28125 -15.671875 12.5 -16.328125 C 12.78125 -13.347656 12.878906 -11.054688 12.796875 -9.453125 C 12.710938 -7.847656 12.734375 -5.578125 12.859375 -2.640625 C 12.847656 -1.859375 12.816406 -0.921875 12.765625 0.171875 C 12.765625 0.265625 12.859375 0.359375 13.046875 0.453125 L 17.0625 -0.375 C 18.75 -1.039062 20.117188 -1.613281 21.171875 -2.09375 C 21.410156 -2.59375 21.554688 -3.5 21.609375 -4.8125 C 21.671875 -6.125 21.660156 -7.800781 21.578125 -9.84375 C 21.503906 -11.894531 21.335938 -14.726562 21.078125 -18.34375 C 22.816406 -18.894531 24.335938 -19.171875 25.640625 -19.171875 C 27.285156 -19.171875 28.109375 -19.347656 28.109375 -19.703125 C 28.222656 -21.597656 28.492188 -23.640625 28.921875 -25.828125 C 29.109375 -27.128906 29.203125 -28.039062 29.203125 -28.5625 Z M 29.203125 -28.5625 "/></g></g></g><g fill="#cb6ce6" fill-opacity="1"><g transform="translate(201.905891, 239.469695)"><g><path d="M 23.328125 -30.25 C 23.703125 -30.25 24.550781 -28.398438 25.875 -24.703125 C 27.207031 -21.015625 28.960938 -15.625 31.140625 -8.53125 C 32.316406 -5.238281 33.363281 -2.570312 34.28125 -0.53125 C 33.476562 0.0820312 31.753906 0.84375 29.109375 1.75 C 29.171875 2.820312 28.863281 4.007812 28.1875 5.3125 C 27.28125 6.851562 25.578125 7.800781 23.078125 8.15625 C 20.023438 8.15625 17.460938 7.671875 15.390625 6.703125 C 13.609375 8.035156 12.066406 8.828125 10.765625 9.078125 C 7.859375 9.710938 5 9.046875 2.1875 7.078125 C 1.34375 6.503906 0.707031 5.71875 0.28125 4.71875 C -0.0703125 3.738281 -0.164062 2.644531 0 1.4375 C 0.125 -0.738281 0.820312 -4.03125 2.09375 -8.4375 C 3.800781 -13.769531 5.320312 -18.269531 6.65625 -21.9375 C 7.3125 -23.519531 8.484375 -24.375 10.171875 -24.5 L 11.21875 -27.765625 C 11.59375 -28.148438 13.117188 -28.5625 15.796875 -29 C 18.472656 -29.4375 20.984375 -29.851562 23.328125 -30.25 Z M 16.765625 -27.4375 C 14.179688 -27.050781 12.78125 -26.703125 12.5625 -26.390625 C 11.851562 -23.671875 11.226562 -21.253906 10.6875 -19.140625 C 10.144531 -17.035156 9.5625 -15.140625 8.9375 -13.453125 C 6.6875 -6.085938 5.5625 -2.164062 5.5625 -1.6875 C 5.5625 -1.457031 6.328125 -1.078125 7.859375 -0.546875 C 9.398438 -0.0234375 11.128906 0.742188 13.046875 1.765625 C 13.453125 -0.378906 13.828125 -1.800781 14.171875 -2.5 C 18.316406 -2.695312 21.164062 -2.976562 22.71875 -3.34375 C 23.164062 -2.144531 23.632812 -0.601562 24.125 1.28125 C 27.414062 0.4375 30.023438 -0.472656 31.953125 -1.453125 C 30.847656 -3.859375 29.835938 -6.53125 28.921875 -9.46875 C 27.285156 -14.382812 25.609375 -19.46875 23.890625 -24.71875 C 23.203125 -26.75 22.765625 -27.96875 22.578125 -28.375 C 21.285156 -28.144531 19.347656 -27.832031 16.765625 -27.4375 Z M 18.125 -19.234375 C 18.332031 -18.429688 18.828125 -16.816406 19.609375 -14.390625 C 19.847656 -13.804688 20.335938 -12.128906 21.078125 -9.359375 C 17.847656 -8.710938 15.941406 -8.375 15.359375 -8.34375 C 16.734375 -14.144531 17.65625 -17.773438 18.125 -19.234375 Z M 18.125 -19.234375 "/></g></g></g><g fill="#cb6ce6" fill-opacity="1"><g transform="translate(233.078479, 239.469695)"><g><path d="M 21.4375 -29.109375 C 24.5625 -29.535156 27.015625 -29.320312 28.796875 -28.46875 C 30.585938 -27.625 31.632812 -26.773438 31.9375 -25.921875 C 33.351562 -24.515625 33.597656 -21.742188 32.671875 -17.609375 C 32.023438 -15.546875 31.351562 -14.207031 30.65625 -13.59375 C 30.34375 -12.75 29.125 -11.347656 27 -9.390625 C 26.320312 -7.515625 25.835938 -6.578125 25.546875 -6.578125 C 25.546875 -6.378906 24.90625 -5.679688 23.625 -4.484375 C 22.71875 -4.023438 22.265625 -3.75 22.265625 -3.65625 C 20.953125 -3.164062 20.191406 -2.921875 19.984375 -2.921875 C 19.078125 -2.773438 18.625 -2.65625 18.625 -2.5625 L 18.625 -0.46875 C 18.625 0.09375 18.625 1.066406 18.625 2.453125 C 18.445312 2.660156 17.289062 3.148438 15.15625 3.921875 C 14.664062 5.691406 13.234375 7.03125 10.859375 7.9375 C 9.984375 8.300781 8.953125 8.578125 7.765625 8.765625 L 4.9375 8.765625 C 3.664062 8.523438 2.71875 8.128906 2.09375 7.578125 C 1 6.722656 0.257812 4.785156 -0.125 1.765625 C -0.507812 -1.242188 -0.375 -4.453125 0.28125 -7.859375 C 0.769531 -10.265625 1.3125 -13.425781 1.90625 -17.34375 C 1.988281 -17.4375 2.144531 -18.046875 2.375 -19.171875 C 2.769531 -19.867188 3.410156 -20.320312 4.296875 -20.53125 C 4.898438 -20.53125 5.203125 -20.925781 5.203125 -21.71875 C 5.429688 -24.21875 5.945312 -25.46875 6.75 -25.46875 C 12.726562 -27.226562 17.625 -28.441406 21.4375 -29.109375 Z M 7.390625 -23.71875 C 6.960938 -20.863281 6.566406 -16 6.203125 -9.125 C 5.898438 -6.332031 5.8125 -3.640625 5.9375 -1.046875 C 6.070312 1.535156 6.375 2.828125 6.84375 2.828125 C 9.726562 3.003906 13.007812 2.304688 16.6875 0.734375 C 16.8125 -0.710938 16.90625 -3.53125 16.96875 -7.71875 C 19.175781 -7.925781 21.15625 -8.457031 22.90625 -9.3125 C 24.40625 -9.851562 25.410156 -10.398438 25.921875 -10.953125 C 26.785156 -11.441406 27.878906 -12.566406 29.203125 -14.328125 C 30.472656 -16.492188 31.109375 -17.925781 31.109375 -18.625 C 31.503906 -20 31.566406 -21.546875 31.296875 -23.265625 C 30.078125 -26.585938 26.882812 -27.925781 21.71875 -27.28125 C 17.226562 -26.5 12.453125 -25.3125 7.390625 -23.71875 Z M 22.640625 -20.4375 C 23.585938 -20.4375 24.191406 -19.832031 24.453125 -18.625 C 24.578125 -17.238281 23.484375 -15.898438 21.171875 -14.609375 C 19.316406 -13.378906 18.007812 -12.765625 17.25 -12.765625 C 17.0625 -12.765625 16.96875 -13.492188 16.96875 -14.953125 C 16.96875 -16.410156 16.96875 -17.632812 16.96875 -18.625 C 18.519531 -19.875 20.410156 -20.476562 22.640625 -20.4375 Z M 22.640625 -20.4375 "/></g></g></g><g fill="#cb6ce6" fill-opacity="1"><g transform="translate(264.826604, 239.469695)"><g><path d="M 21.4375 -29.109375 C 24.5625 -29.535156 27.015625 -29.320312 28.796875 -28.46875 C 30.585938 -27.625 31.632812 -26.773438 31.9375 -25.921875 C 33.351562 -24.515625 33.597656 -21.742188 32.671875 -17.609375 C 32.023438 -15.546875 31.351562 -14.207031 30.65625 -13.59375 C 30.34375 -12.75 29.125 -11.347656 27 -9.390625 C 26.320312 -7.515625 25.835938 -6.578125 25.546875 -6.578125 C 25.546875 -6.378906 24.90625 -5.679688 23.625 -4.484375 C 22.71875 -4.023438 22.265625 -3.75 22.265625 -3.65625 C 20.953125 -3.164062 20.191406 -2.921875 19.984375 -2.921875 C 19.078125 -2.773438 18.625 -2.65625 18.625 -2.5625 L 18.625 -0.46875 C 18.625 0.09375 18.625 1.066406 18.625 2.453125 C 18.445312 2.660156 17.289062 3.148438 15.15625 3.921875 C 14.664062 5.691406 13.234375 7.03125 10.859375 7.9375 C 9.984375 8.300781 8.953125 8.578125 7.765625 8.765625 L 4.9375 8.765625 C 3.664062 8.523438 2.71875 8.128906 2.09375 7.578125 C 1 6.722656 0.257812 4.785156 -0.125 1.765625 C -0.507812 -1.242188 -0.375 -4.453125 0.28125 -7.859375 C 0.769531 -10.265625 1.3125 -13.425781 1.90625 -17.34375 C 1.988281 -17.4375 2.144531 -18.046875 2.375 -19.171875 C 2.769531 -19.867188 3.410156 -20.320312 4.296875 -20.53125 C 4.898438 -20.53125 5.203125 -20.925781 5.203125 -21.71875 C 5.429688 -24.21875 5.945312 -25.46875 6.75 -25.46875 C 12.726562 -27.226562 17.625 -28.441406 21.4375 -29.109375 Z M 7.390625 -23.71875 C 6.960938 -20.863281 6.566406 -16 6.203125 -9.125 C 5.898438 -6.332031 5.8125 -3.640625 5.9375 -1.046875 C 6.070312 1.535156 6.375 2.828125 6.84375 2.828125 C 9.726562 3.003906 13.007812 2.304688 16.6875 0.734375 C 16.8125 -0.710938 16.90625 -3.53125 16.96875 -7.71875 C 19.175781 -7.925781 21.15625 -8.457031 22.90625 -9.3125 C 24.40625 -9.851562 25.410156 -10.398438 25.921875 -10.953125 C 26.785156 -11.441406 27.878906 -12.566406 29.203125 -14.328125 C 30.472656 -16.492188 31.109375 -17.925781 31.109375 -18.625 C 31.503906 -20 31.566406 -21.546875 31.296875 -23.265625 C 30.078125 -26.585938 26.882812 -27.925781 21.71875 -27.28125 C 17.226562 -26.5 12.453125 -25.3125 7.390625 -23.71875 Z M 22.640625 -20.4375 C 23.585938 -20.4375 24.191406 -19.832031 24.453125 -18.625 C 24.578125 -17.238281 23.484375 -15.898438 21.171875 -14.609375 C 19.316406 -13.378906 18.007812 -12.765625 17.25 -12.765625 C 17.0625 -12.765625 16.96875 -13.492188 16.96875 -14.953125 C 16.96875 -16.410156 16.96875 -17.632812 16.96875 -18.625 C 18.519531 -19.875 20.410156 -20.476562 22.640625 -20.4375 Z M 22.640625 -20.4375 "/></g></g></g><g fill="#05001e" fill-opacity="1"><g transform="translate(114.859642, 279.842575)"><g><path d="M 3.625 -4.90625 L 8.5625 -4.90625 L 8.5625 -1.1875 L 7.34375 -1.1875 L 7.34375 0.03125 L 1.1875 0.03125 L 1.1875 -1.1875 L -0.03125 -1.1875 L -0.03125 -8.5625 L 1.1875 -8.5625 L 1.1875 -9.78125 L 7.34375 -9.78125 L 7.34375 -8.5625 L 8.5625 -8.5625 L 8.5625 -7.28125 L 7.28125 -7.28125 L 7.28125 -8.5 L 1.25 -8.5 L 1.25 -1.25 L 7.28125 -1.25 L 7.28125 -3.625 L 3.625 -3.625 Z M 3.625 -4.90625 "/></g></g></g><g fill="#05001e" fill-opacity="1"><g transform="translate(125.38578, 279.842575)"><g><path d="M 1.25 -1.25 L 6.125 -1.25 L 6.125 0.03125 L -0.03125 0.03125 L -0.03125 -3.6875 L 1.1875 -3.6875 L 1.1875 -4.90625 L 4.84375 -4.90625 L 4.84375 -8.5 L 1.25 -8.5 L 1.25 -6.0625 L -0.03125 -6.0625 L -0.03125 -8.5625 L 1.1875 -8.5625 L 1.1875 -9.78125 L 4.90625 -9.78125 L 4.90625 -8.5625 L 6.125 -8.5625 L 6.125 -4.84375 L 4.90625 -4.84375 L 4.90625 -3.625 L 1.25 -3.625 Z M 1.25 -1.25 "/></g></g></g><g fill="#05001e" fill-opacity="1"><g transform="translate(133.475374, 279.842575)"><g><path d="M -0.03125 -0.03125 L 6.125 -0.03125 L 6.125 1.25 L -0.03125 1.25 Z M -0.03125 -0.03125 "/></g></g></g><g fill="#05001e" fill-opacity="1"><g transform="translate(141.564968, 279.842575)"><g><path d="M 1.25 -8.5 L 1.25 -4.90625 L 6.0625 -4.90625 L 6.0625 -8.5 Z M 6.125 -4.84375 L 6.125 -3.625 L 1.25 -3.625 L 1.25 0.03125 L -0.03125 0.03125 L -0.03125 -9.78125 L 6.125 -9.78125 L 6.125 -8.5625 L 7.34375 -8.5625 L 7.34375 -4.84375 Z M 6.125 -4.84375 "/></g></g></g><g fill="#05001e" fill-opacity="1"><g transform="translate(150.872829, 279.842575)"><g><path d="M 1.25 -4.90625 L 6.0625 -4.90625 L 6.0625 -8.5 L 1.25 -8.5 Z M -0.03125 -9.78125 L 6.125 -9.78125 L 6.125 -8.5625 L 7.34375 -8.5625 L 7.34375 -4.84375 L 6.125 -4.84375 L 6.125 -3.6875 L 7.34375 -3.6875 L 7.34375 0.03125 L 6.0625 0.03125 L 6.0625 -3.625 L 1.25 -3.625 L 1.25 0.03125 L -0.03125 0.03125 Z M -0.03125 -9.78125 "/></g></g></g><g fill="#05001e" fill-opacity="1"><g transform="translate(160.180691, 279.842575)"><g><path d="M 1.25 -1.25 L 6.0625 -1.25 L 6.0625 -8.5 L 1.25 -8.5 Z M -0.03125 -8.5625 L 1.1875 -8.5625 L 1.1875 -9.78125 L 6.125 -9.78125 L 6.125 -8.5625 L 7.34375 -8.5625 L 7.34375 -1.1875 L 6.125 -1.1875 L 6.125 0.03125 L 1.1875 0.03125 L 1.1875 -1.1875 L -0.03125 -1.1875 Z M -0.03125 -8.5625 "/></g></g></g><g fill="#05001e" fill-opacity="1"><g transform="translate(169.488553, 279.842575)"><g><path d="M -0.03125 -3.6875 L 1.25 -3.6875 L 1.25 -1.25 L 4.84375 -1.25 L 4.84375 -9.78125 L 6.125 -9.78125 L 6.125 -1.1875 L 4.90625 -1.1875 L 4.90625 0.03125 L 1.1875 0.03125 L 1.1875 -1.1875 L -0.03125 -1.1875 Z M -0.03125 -3.6875 "/></g></g></g><g fill="#05001e" fill-opacity="1"><g transform="translate(177.578147, 279.842575)"><g><path d="M -0.03125 -3.6875 L 3.6875 -3.6875 L 3.6875 -2.40625 L -0.03125 -2.40625 Z M -0.03125 -3.6875 "/></g></g></g><g fill="#05001e" fill-opacity="1"><g transform="translate(183.231197, 279.842575)"><g><path d="M 1.25 -8.5 L 1.25 -6.125 L 4.90625 -6.125 L 4.90625 -4.90625 L 6.125 -4.90625 L 6.125 -1.1875 L 4.90625 -1.1875 L 4.90625 0.03125 L 1.1875 0.03125 L 1.1875 -1.1875 L -0.03125 -1.1875 L -0.03125 -2.46875 L 1.25 -2.46875 L 1.25 -1.25 L 4.84375 -1.25 L 4.84375 -4.84375 L -0.03125 -4.84375 L -0.03125 -9.78125 L 6.125 -9.78125 L 6.125 -8.5 Z M 1.25 -8.5 "/></g></g></g><g fill="#05001e" fill-opacity="1"><g transform="translate(191.320791, 279.842575)"><g><path d="M 1.25 -8.5 L 1.25 -6.125 L 4.90625 -6.125 L 4.90625 -4.90625 L 6.125 -4.90625 L 6.125 -1.1875 L 4.90625 -1.1875 L 4.90625 0.03125 L 1.1875 0.03125 L 1.1875 -1.1875 L -0.03125 -1.1875 L -0.03125 -2.46875 L 1.25 -2.46875 L 1.25 -1.25 L 4.84375 -1.25 L 4.84375 -4.84375 L -0.03125 -4.84375 L -0.03125 -9.78125 L 6.125 -9.78125 L 6.125 -8.5 Z M 1.25 -8.5 "/></g></g></g><g fill="#05001e" fill-opacity="1"><g transform="translate(199.410385, 279.842575)"><g><path d="M 7.28125 -1.25 L 7.28125 -8.5 L 1.25 -8.5 L 1.25 -1.25 Z M 1.1875 0.03125 L 1.1875 -1.1875 L -0.03125 -1.1875 L -0.03125 -8.5625 L 1.1875 -8.5625 L 1.1875 -9.78125 L 7.34375 -9.78125 L 7.34375 -8.5625 L 8.5625 -8.5625 L 8.5625 -1.1875 L 7.34375 -1.1875 L 7.34375 0.03125 Z M 1.1875 0.03125 "/></g></g></g><g fill="#05001e" fill-opacity="1"><g transform="translate(209.936522, 279.842575)"><g><path d="M -0.03125 -8.5625 L 1.1875 -8.5625 L 1.1875 -9.78125 L 4.90625 -9.78125 L 4.90625 -8.5625 L 6.125 -8.5625 L 6.125 -6.0625 L 4.90625 -6.0625 L 4.90625 -4.90625 L 6.125 -4.90625 L 6.125 -1.1875 L 4.90625 -1.1875 L 4.90625 0.03125 L 1.1875 0.03125 L 1.1875 -1.1875 L -0.03125 -1.1875 L -0.03125 -3.6875 L 1.25 -3.6875 L 1.25 -1.25 L 4.84375 -1.25 L 4.84375 -4.84375 L 2.40625 -4.84375 L 2.40625 -6.125 L 4.84375 -6.125 L 4.84375 -8.5 L 1.25 -8.5 L 1.25 -7.28125 L -0.03125 -7.28125 Z M -0.03125 -8.5625 "/></g></g></g><g fill="#05001e" fill-opacity="1"><g transform="translate(218.026116, 279.842575)"><g><path d="M -0.03125 -8.5625 L 1.1875 -8.5625 L 1.1875 -9.78125 L 4.90625 -9.78125 L 4.90625 -8.5625 L 6.125 -8.5625 L 6.125 -6.0625 L 4.90625 -6.0625 L 4.90625 -4.90625 L 6.125 -4.90625 L 6.125 -1.1875 L 4.90625 -1.1875 L 4.90625 0.03125 L 1.1875 0.03125 L 1.1875 -1.1875 L -0.03125 -1.1875 L -0.03125 -3.6875 L 1.25 -3.6875 L 1.25 -1.25 L 4.84375 -1.25 L 4.84375 -4.84375 L 2.40625 -4.84375 L 2.40625 -6.125 L 4.84375 -6.125 L 4.84375 -8.5 L 1.25 -8.5 L 1.25 -7.28125 L -0.03125 -7.28125 Z M -0.03125 -8.5625 "/></g></g></g><g fill="#05001e" fill-opacity="1"><g transform="translate(226.11571, 279.842575)"><g><path d="M 4.84375 -7.28125 L 3.6875 -7.28125 L 3.6875 -6.0625 L 2.46875 -6.0625 L 2.46875 -4.84375 L 1.25 -4.84375 L 1.25 -3.6875 L 4.84375 -3.6875 Z M -0.03125 -4.90625 L 1.1875 -4.90625 L 1.1875 -6.125 L 2.40625 -6.125 L 2.40625 -7.34375 L 3.625 -7.34375 L 3.625 -8.5625 L 4.84375 -8.5625 L 4.84375 -9.78125 L 6.125 -9.78125 L 6.125 -3.6875 L 7.34375 -3.6875 L 7.34375 -2.40625 L 6.125 -2.40625 L 6.125 0.03125 L 4.84375 0.03125 L 4.84375 -2.40625 L -0.03125 -2.40625 Z M -0.03125 -4.90625 "/></g></g></g><g fill="#05001e" fill-opacity="1"><g transform="translate(235.423572, 279.842575)"><g><path d="M -0.03125 -8.5625 L 1.1875 -8.5625 L 1.1875 -9.78125 L 4.90625 -9.78125 L 4.90625 -8.5625 L 6.125 -8.5625 L 6.125 -6.0625 L 4.90625 -6.0625 L 4.90625 -4.90625 L 6.125 -4.90625 L 6.125 -1.1875 L 4.90625 -1.1875 L 4.90625 0.03125 L 1.1875 0.03125 L 1.1875 -1.1875 L -0.03125 -1.1875 L -0.03125 -3.6875 L 1.25 -3.6875 L 1.25 -1.25 L 4.84375 -1.25 L 4.84375 -4.84375 L 2.40625 -4.84375 L 2.40625 -6.125 L 4.84375 -6.125 L 4.84375 -8.5 L 1.25 -8.5 L 1.25 -7.28125 L -0.03125 -7.28125 Z M -0.03125 -8.5625 "/></g></g></g><g fill="#05001e" fill-opacity="1"><g transform="translate(243.513165, 279.842575)"><g><path d="M 6.0625 -8.5 L 1.25 -8.5 L 1.25 -6.125 L 6.0625 -6.125 Z M 6.0625 -1.25 L 6.0625 -4.84375 L 1.25 -4.84375 L 1.25 -1.25 Z M 1.1875 0.03125 L 1.1875 -1.1875 L -0.03125 -1.1875 L -0.03125 -4.90625 L 1.1875 -4.90625 L 1.1875 -6.0625 L -0.03125 -6.0625 L -0.03125 -8.5625 L 1.1875 -8.5625 L 1.1875 -9.78125 L 6.125 -9.78125 L 6.125 -8.5625 L 7.34375 -8.5625 L 7.34375 -6.0625 L 6.125 -6.0625 L 6.125 -4.90625 L 7.34375 -4.90625 L 7.34375 -1.1875 L 6.125 -1.1875 L 6.125 0.03125 Z M 1.1875 0.03125 "/></g></g></g><g fill="#05001e" fill-opacity="1"><g transform="translate(252.821027, 279.842575)"><g><path d="M -0.03125 -9.78125 L 6.125 -9.78125 L 6.125 -7.28125 L 4.90625 -7.28125 L 4.90625 -4.84375 L 3.6875 -4.84375 L 3.6875 -2.40625 L 2.46875 -2.40625 L 2.46875 0.03125 L 1.1875 0.03125 L 1.1875 -2.46875 L 2.40625 -2.46875 L 2.40625 -4.90625 L 3.625 -4.90625 L 3.625 -7.34375 L 4.84375 -7.34375 L 4.84375 -8.5 L -0.03125 -8.5 Z M -0.03125 -9.78125 "/></g></g></g></svg>